# This file uses centimeters as units for non-parametric coordinates.

mtllib tree.mtl
g default
v -2.016323 2.200000 2.016323
v 2.016323 2.200000 2.016323
v -2.016323 3.200000 2.016323
v 2.016323 3.200000 2.016323
v -2.016323 3.200000 -2.016323
v 2.016323 3.200000 -2.016323
v -2.016323 2.200000 -2.016323
v 2.016323 2.200000 -2.016323
v -1.405315 3.200000 1.405315
v 1.405315 3.200000 1.405315
v 1.405315 3.200000 -1.405315
v -1.405315 3.200000 -1.405315
v -1.405315 4.029902 1.405315
v 1.405315 4.029902 1.405315
v 1.405315 4.029902 -1.405315
v -1.405315 4.029902 -1.405315
v -0.837511 4.029902 0.837511
v 0.837511 4.029902 0.837511
v 0.837511 4.029902 -0.837511
v -0.837511 4.029902 -0.837511
v -0.837511 4.792327 0.837511
v 0.837511 4.792327 0.837511
v 0.837511 4.792327 -0.837511
v -0.837511 4.792327 -0.837511
v -0.600660 2.200000 -0.600660
v 0.600660 2.200000 -0.600660
v 0.600660 2.200000 0.600660
v -0.600660 2.200000 0.600660
v -0.600660 -0.025027 -0.600660
v 0.600660 -0.025027 -0.600660
v 0.600660 -0.025027 0.600660
v -0.600660 -0.025027 0.600660
vt 0.257423 0.587585
vt 0.050292 0.587370
vt 0.418894 0.013205
vt 0.418485 0.402899
vt 0.029201 0.012796
vt 0.028792 0.402489
vt 0.963519 0.274558
vt 0.744383 0.270322
vt 0.967755 0.055421
vt 0.748619 0.051185
vt 0.671685 0.588015
vt 0.672542 0.536073
vt 0.464554 0.587800
vt 0.465411 0.535858
vt 0.271365 0.512010
vt 0.987919 0.514885
vt 0.749068 0.513927
vt 0.510216 0.512968
vt 0.318907 0.302574
vt 0.114046 0.302447
vt 0.114174 0.097587
vt 0.319034 0.097714
vt 0.510984 0.148467
vt 0.734489 0.207825
vt 0.654621 0.410821
vt 0.431116 0.351462
vt 0.507774 0.202866
vt 0.659580 0.204615
vt 0.657831 0.356422
vt 0.506025 0.354673
vt 0.792262 0.608393
vt 0.876100 0.608677
vt 0.624585 0.607824
vt 0.708423 0.608108
vt 0.870501 0.989227
vt 0.871162 0.878107
vt 0.619648 0.877254
vt 0.703486 0.877538
vt 0.787324 0.877823
vt 0.954339 0.989512
vt 0.955000 0.878392
vt 0.824060 0.129600
vt 0.959938 0.608962
vt 0.888078 0.196143
vt 0.889340 0.130862
vt 0.822798 0.194881
vt 0.277622 0.139074
vt 0.502815 0.410175
vt 0.155533 0.138998
vt 0.733743 0.359632
vt 0.155458 0.261087
vt 0.662790 0.149112
vt 0.277546 0.261163
vt 0.431862 0.199656
vt 0.754228 0.451017
vt 0.993080 0.451976
vt 0.359787 0.072188
vt 0.088183 0.071903
vt 0.087898 0.343507
vt 0.359502 0.343792
vt 0.878815 0.588231
vt 0.879673 0.536288
vt 0.051150 0.535428
vt 0.258281 0.535643
vt 0.032513 0.511051
vt 0.037673 0.448141
vt 0.276525 0.449100
vt 0.515377 0.450059
vn 0.000000 0.000000 1.000000
vn 0.000000 0.000000 1.000000
vn 0.000000 0.000000 1.000000
vn 0.000000 0.000000 1.000000
vn 0.000000 1.000000 0.000000
vn 0.000000 1.000000 0.000000
vn 0.000000 1.000000 0.000000
vn 0.000000 1.000000 0.000000
vn 0.000000 0.000000 -1.000000
vn 0.000000 0.000000 -1.000000
vn 0.000000 0.000000 -1.000000
vn 0.000000 0.000000 -1.000000
vn 0.000000 -1.000000 0.000000
vn 0.000000 -1.000000 0.000000
vn 0.000000 -1.000000 0.000000
vn 0.000000 -1.000000 0.000000
vn 1.000000 0.000000 0.000000
vn 1.000000 0.000000 0.000000
vn 1.000000 0.000000 0.000000
vn 1.000000 0.000000 0.000000
vn -1.000000 0.000000 0.000000
vn -1.000000 0.000000 0.000000
vn -1.000000 0.000000 0.000000
vn -1.000000 0.000000 0.000000
vn 0.000000 1.000000 0.000000
vn 0.000000 1.000000 0.000000
vn 0.000000 1.000000 0.000000
vn 0.000000 1.000000 0.000000
vn 0.000000 1.000000 -0.000000
vn 0.000000 1.000000 -0.000000
vn 0.000000 1.000000 -0.000000
vn 0.000000 1.000000 -0.000000
vn 0.000000 0.000000 1.000000
vn 0.000000 0.000000 1.000000
vn 0.000000 0.000000 1.000000
vn 0.000000 0.000000 1.000000
vn 1.000000 0.000000 0.000000
vn 1.000000 0.000000 0.000000
vn 1.000000 0.000000 0.000000
vn 1.000000 0.000000 0.000000
vn 0.000000 0.000000 -1.000000
vn 0.000000 0.000000 -1.000000
vn 0.000000 0.000000 -1.000000
vn 0.000000 0.000000 -1.000000
vn -1.000000 0.000000 0.000000
vn -1.000000 0.000000 0.000000
vn -1.000000 0.000000 0.000000
vn -1.000000 0.000000 0.000000
vn 0.000000 1.000000 0.000000
vn 0.000000 1.000000 0.000000
vn 0.000000 1.000000 0.000000
vn 0.000000 1.000000 0.000000
vn 0.000000 1.000000 -0.000000
vn 0.000000 1.000000 -0.000000
vn 0.000000 1.000000 -0.000000
vn 0.000000 1.000000 -0.000000
vn 0.000000 0.000000 1.000000
vn 0.000000 0.000000 1.000000
vn 0.000000 0.000000 1.000000
vn 0.000000 0.000000 1.000000
vn 1.000000 0.000000 0.000000
vn 1.000000 0.000000 0.000000
vn 1.000000 0.000000 0.000000
vn 1.000000 0.000000 0.000000
vn 0.000000 0.000000 -1.000000
vn 0.000000 0.000000 -1.000000
vn 0.000000 0.000000 -1.000000
vn 0.000000 0.000000 -1.000000
vn -1.000000 0.000000 0.000000
vn -1.000000 0.000000 0.000000
vn -1.000000 0.000000 0.000000
vn -1.000000 0.000000 0.000000
vn 0.000000 -1.000000 -0.000000
vn 0.000000 -1.000000 -0.000000
vn 0.000000 -1.000000 -0.000000
vn 0.000000 -1.000000 -0.000000
vn 0.000000 -1.000000 0.000000
vn 0.000000 -1.000000 0.000000
vn 0.000000 -1.000000 0.000000
vn 0.000000 -1.000000 0.000000
vn 0.000000 0.000000 -1.000000
vn 0.000000 0.000000 -1.000000
vn 0.000000 0.000000 -1.000000
vn 0.000000 0.000000 -1.000000
vn 1.000000 0.000000 0.000000
vn 1.000000 0.000000 0.000000
vn 1.000000 0.000000 0.000000
vn 1.000000 0.000000 0.000000
vn 0.000000 0.000000 1.000000
vn 0.000000 0.000000 1.000000
vn 0.000000 0.000000 1.000000
vn 0.000000 0.000000 1.000000
vn -1.000000 0.000000 0.000000
vn -1.000000 0.000000 0.000000
vn -1.000000 0.000000 0.000000
vn -1.000000 0.000000 0.000000
s off
g pCube1
usemtl initialShadingGroup
f 1/1/1 2/2/2 4/63/3 3/64/4
f 21/27/5 22/28/6 23/29/7 24/30/8
f 5/14/9 6/12/10 8/11/11 7/13/12
f 29/35/13 30/36/14 31/41/15 32/40/16
f 2/61/17 8/11/18 6/12/19 4/62/20
f 7/13/21 1/1/22 3/64/23 5/14/24
s 1
f 3/3/25 4/4/26 10/60/27 9/57/28
f 4/4/26 6/6/29 11/59/30 10/60/27
f 6/6/29 5/5/31 12/58/32 11/59/30
f 5/5/31 3/3/25 9/57/28 12/58/32
s off
f 9/15/33 10/65/34 14/66/35 13/67/36
f 10/16/37 11/17/38 15/55/39 14/56/40
f 11/17/41 12/18/42 16/68/43 15/55/44
f 12/18/45 9/15/46 13/67/47 16/68/48
s 2
f 13/19/49 14/20/50 18/51/51 17/53/52
f 14/20/50 15/21/53 19/49/54 18/51/51
f 15/21/53 16/22/55 20/47/56 19/49/54
f 16/22/55 13/19/49 17/53/52 20/47/56
s off
f 17/23/57 18/52/58 22/28/59 21/27/60
f 18/24/61 19/50/62 23/29/63 22/28/64
f 19/25/65 20/48/66 24/30/67 23/29/68
f 20/26/69 17/54/70 21/27/71 24/30/72
s 3
f 7/7/73 8/8/74 26/46/75 25/44/76
f 8/8/74 2/10/77 27/42/78 26/46/75
f 2/10/77 1/9/79 28/45/80 27/42/78
f 1/9/79 7/7/73 25/44/76 28/45/80
s off
f 25/31/81 26/32/82 30/36/83 29/39/84
f 26/32/85 27/43/86 31/41/87 30/36/88
f 27/33/89 28/34/90 32/38/91 31/37/92
f 28/34/93 25/31/94 29/39/95 32/38/96
